<svg width="51" height="35" viewBox="0 0 51 35" fill="none" xmlns="http://www.w3.org/2000/svg">
<g filter="url(#filter0_d_14_79)">
<mask id="path-1-inside-1_14_79" fill="white">
<path fill-rule="evenodd" clip-rule="evenodd" d="M18.4038 0.442919C10.6596 2.13345 4.6616 6.40571 2.45664 11.8019C1.84779 13.2923 1.84779 18.3143 2.45664 19.8048C3.81233 23.1224 6.97091 26.3511 10.8603 28.3951C19.3795 32.8725 31.355 32.8725 39.8743 28.3951C42.8597 26.8262 45.2432 24.7467 46.9386 22.2322C48.4114 20.0481 48.7357 18.888 48.7357 15.8033C48.7357 12.6915 48.4226 11.5925 46.8669 9.24097C44.0527 4.98727 38.7574 1.81653 32.1733 0.443239C29.3418 -0.147693 21.1098 -0.147693 18.4038 0.442919ZM22.3262 1.26049C14.2196 1.87031 7.1044 5.71234 4.28962 10.9997C3.44228 12.5919 3.26494 13.536 3.63371 14.4966C3.89812 15.1855 4.59917 15.1327 5.71253 14.3398C6.22504 13.9748 6.89536 13.7232 7.20267 13.7805C8.0609 13.9406 8.8804 15.9138 8.88072 17.8223C8.88168 20.2603 9.54015 23.9048 10.013 24.0863C10.2345 24.1715 10.9711 23.9419 11.6494 23.5764C13.7295 22.4553 15.914 21.9995 17.1954 22.4188C18.6596 22.8977 18.9234 23.1951 20.1379 25.7375C21.2922 28.1543 22.4443 29.0849 24.2837 29.0868C25.834 29.0884 26.9381 28.1566 27.6142 26.2762C28.5905 23.5616 29.6789 22.6858 32.0759 22.6858C33.4214 22.6858 33.6727 22.8199 35.0713 24.2864C36.5953 25.8841 37.6203 26.2698 38.2606 25.4868C38.4408 25.2669 38.7823 24.2361 39.0202 23.1964C39.6114 20.6095 40.6832 19.4824 42.5418 19.4917C43.4285 19.4962 44.2246 19.7263 44.7343 20.1249C45.1744 20.4693 45.6501 20.7542 45.7913 20.7581C45.9324 20.7619 45.9542 19.5765 45.8393 18.1242C45.6418 15.625 45.6757 15.4173 46.4744 14.2514C46.9997 13.4847 47.2459 12.7914 47.1265 12.4149C46.2471 9.64399 42.9666 6.22324 39.4293 4.38834C34.3667 1.76244 28.9129 0.764956 22.3262 1.26049ZM30.9693 2.83226C30.9693 3.15846 33.2552 4.43924 33.8375 4.43924C34.5139 4.43924 34.1436 3.24937 33.3551 2.8902C32.3608 2.43692 30.9693 2.40331 30.9693 2.83226ZM23.1799 4.01252C23.0625 4.12969 22.9664 4.70589 22.9664 5.29298C22.9664 6.12656 23.099 6.35993 23.5724 6.35993C24.3055 6.35993 24.6352 5.62334 24.372 4.57401C24.1851 3.82878 23.6265 3.56564 23.1799 4.01252ZM15.2837 5.25361C15.2837 5.52539 15.6271 6.11792 16.0468 6.57056C16.6256 7.19479 16.9409 7.32027 17.3516 7.09043C17.8411 6.81673 17.811 6.68901 17.0401 5.77348C16.13 4.69149 15.2837 4.44116 15.2837 5.25361ZM29.129 7.52291C27.8936 8.57385 27.594 9.57549 28.5227 9.5518C29.0819 9.53739 30.9693 7.71081 30.9693 7.18358C30.9693 6.30391 30.4494 6.39994 29.129 7.52291ZM39.7424 7.36893C39.4079 7.91025 40.5356 8.60073 41.7543 8.60073C43.0383 8.60073 43.1759 7.90833 41.9982 7.37181C40.9591 6.89836 40.034 6.89708 39.7424 7.36893ZM9.17042 9.17534C8.57981 9.70289 8.21648 10.3041 8.28498 10.6399C8.39126 11.161 8.49626 11.145 9.52159 10.4542C10.5786 9.74195 11.2425 8.28062 10.5091 8.28062C10.3238 8.28062 9.72134 8.68332 9.17042 9.17534ZM16.6752 9.41351C16.4297 10.0528 16.7559 10.4155 17.7578 10.6178C18.2457 10.7161 18.9096 10.8992 19.2332 11.0243C19.7131 11.21 19.8018 11.1168 19.7134 10.5201C19.578 9.60398 16.9668 8.65291 16.6752 9.41351ZM35.2995 9.86711C34.9995 10.3524 36.693 11.3281 37.1104 10.9107C37.6517 10.3694 37.1546 9.56108 36.28 9.56108C35.845 9.56108 35.4035 9.69873 35.2995 9.86711ZM22.6025 11.4805C20.6072 11.734 18.0008 12.8541 17.7233 13.5772C17.4556 14.2741 16.9505 14.149 15.549 13.0391C14.6037 12.2904 14.1895 12.1278 13.9184 12.3989C13.3918 12.9255 16.6112 15.9461 18.8843 17.0582C21.8476 18.508 27.4525 18.7596 30.4891 17.5787C34.1023 16.174 37.3716 13.8743 37.3716 12.7373C37.3716 11.8355 36.943 11.9725 35.2909 13.4025C34.4771 14.1067 33.712 14.682 33.5907 14.681C33.4694 14.6797 33.1342 14.2639 32.8458 13.7568C31.8554 12.016 26.9563 10.9273 22.6025 11.4805ZM40.793 11.6886C40.4886 11.993 40.5155 13.6496 40.8282 13.8426C41.3532 14.1672 41.9009 13.462 41.7988 12.5923C41.6938 11.6975 41.2146 11.267 40.793 11.6886ZM22.0061 12.8823C18.0949 13.8711 17.5827 15.0581 20.5582 16.239C23.5234 17.4154 28.9587 17.1709 31.2094 15.7598C34.1535 13.9143 26.8978 11.6457 22.0061 12.8823ZM47.3867 16.4436C47.3893 17.3239 47.4514 17.6459 47.525 17.1593C47.5983 16.6728 47.5964 15.9525 47.5205 15.5588C47.4447 15.165 47.3845 15.5632 47.3867 16.4436ZM6.00032 15.8033C5.77144 16.0789 5.07326 16.2835 4.36069 16.2835C3.25373 16.2835 3.11928 16.3693 3.11928 17.0745C3.11928 17.5099 3.46149 18.6261 3.87956 19.5554C6.24105 24.8034 11.3462 28.2443 19.2015 29.883C22.3102 30.5315 23.1297 30.5133 21.7353 29.8263C20.6293 29.2811 19.7012 28.0167 18.6545 25.6273C18.3219 24.8683 17.7972 24.1122 17.488 23.9467C16.3884 23.3584 14.4286 23.625 12.5351 24.6209C11.5162 25.1571 10.3997 25.5531 10.0539 25.5012C8.87847 25.3245 8.18478 23.8872 7.90052 21.0398C7.42963 16.3213 7.23916 15.3232 6.80989 15.3232C6.58389 15.3232 6.2196 15.5392 6.00032 15.8033ZM11.6078 16.2745C11.3597 16.676 12.3562 18.2042 12.8661 18.2042C13.5896 18.2042 13.669 17.7989 13.1254 16.8789C12.578 15.9525 11.9593 15.706 11.6078 16.2745ZM38.0371 17.6424C37.1021 18.127 36.8575 18.7013 37.4833 18.9417C38.0266 19.1501 40.0926 18.1859 40.0926 17.724C40.0926 17.2374 38.9085 17.1904 38.0371 17.6424ZM19.9106 20.1486C19.659 20.5561 20.9708 22.0456 21.5816 22.0456C22.2026 22.0456 22.0996 20.9489 21.4206 20.3346C20.7451 19.7231 20.2141 19.6578 19.9106 20.1486ZM28.9446 20.0154C28.5332 20.4271 29.4625 21.0852 30.4482 21.0804C31.6486 21.0743 32.4149 20.6508 32.1118 20.1607C31.8771 19.7808 29.2977 19.6626 28.9446 20.0154ZM41.0933 21.4854C40.8433 21.8817 40.4089 22.9979 40.1284 23.9663C39.5298 26.032 39.3637 26.3095 38.4331 26.7993C37.0028 27.5522 36.0502 27.2542 34.4906 25.5668C33.2232 24.1955 32.8401 23.9663 31.815 23.9663C30.9325 23.9663 30.4126 24.1884 29.8335 24.8133C29.402 25.2791 29.0486 25.8418 29.0486 26.0637C29.0486 26.7769 27.6676 29.0804 26.9634 29.5417C26.5879 29.7879 25.931 30.0549 25.504 30.1352C25.0766 30.2156 25.7354 30.301 26.9679 30.3247C32.1518 30.4249 38.6978 28.2023 42.6484 25.0002C45.2 22.9323 45.3777 22.591 44.4276 21.5798C43.4199 20.5071 41.7409 20.4594 41.0933 21.4854Z"/>
</mask>
<path fill-rule="evenodd" clip-rule="evenodd" d="M18.4038 0.442919C10.6596 2.13345 4.6616 6.40571 2.45664 11.8019C1.84779 13.2923 1.84779 18.3143 2.45664 19.8048C3.81233 23.1224 6.97091 26.3511 10.8603 28.3951C19.3795 32.8725 31.355 32.8725 39.8743 28.3951C42.8597 26.8262 45.2432 24.7467 46.9386 22.2322C48.4114 20.0481 48.7357 18.888 48.7357 15.8033C48.7357 12.6915 48.4226 11.5925 46.8669 9.24097C44.0527 4.98727 38.7574 1.81653 32.1733 0.443239C29.3418 -0.147693 21.1098 -0.147693 18.4038 0.442919ZM22.3262 1.26049C14.2196 1.87031 7.1044 5.71234 4.28962 10.9997C3.44228 12.5919 3.26494 13.536 3.63371 14.4966C3.89812 15.1855 4.59917 15.1327 5.71253 14.3398C6.22504 13.9748 6.89536 13.7232 7.20267 13.7805C8.0609 13.9406 8.8804 15.9138 8.88072 17.8223C8.88168 20.2603 9.54015 23.9048 10.013 24.0863C10.2345 24.1715 10.9711 23.9419 11.6494 23.5764C13.7295 22.4553 15.914 21.9995 17.1954 22.4188C18.6596 22.8977 18.9234 23.1951 20.1379 25.7375C21.2922 28.1543 22.4443 29.0849 24.2837 29.0868C25.834 29.0884 26.9381 28.1566 27.6142 26.2762C28.5905 23.5616 29.6789 22.6858 32.0759 22.6858C33.4214 22.6858 33.6727 22.8199 35.0713 24.2864C36.5953 25.8841 37.6203 26.2698 38.2606 25.4868C38.4408 25.2669 38.7823 24.2361 39.0202 23.1964C39.6114 20.6095 40.6832 19.4824 42.5418 19.4917C43.4285 19.4962 44.2246 19.7263 44.7343 20.1249C45.1744 20.4693 45.6501 20.7542 45.7913 20.7581C45.9324 20.7619 45.9542 19.5765 45.8393 18.1242C45.6418 15.625 45.6757 15.4173 46.4744 14.2514C46.9997 13.4847 47.2459 12.7914 47.1265 12.4149C46.2471 9.64399 42.9666 6.22324 39.4293 4.38834C34.3667 1.76244 28.9129 0.764956 22.3262 1.26049ZM30.9693 2.83226C30.9693 3.15846 33.2552 4.43924 33.8375 4.43924C34.5139 4.43924 34.1436 3.24937 33.3551 2.8902C32.3608 2.43692 30.9693 2.40331 30.9693 2.83226ZM23.1799 4.01252C23.0625 4.12969 22.9664 4.70589 22.9664 5.29298C22.9664 6.12656 23.099 6.35993 23.5724 6.35993C24.3055 6.35993 24.6352 5.62334 24.372 4.57401C24.1851 3.82878 23.6265 3.56564 23.1799 4.01252ZM15.2837 5.25361C15.2837 5.52539 15.6271 6.11792 16.0468 6.57056C16.6256 7.19479 16.9409 7.32027 17.3516 7.09043C17.8411 6.81673 17.811 6.68901 17.0401 5.77348C16.13 4.69149 15.2837 4.44116 15.2837 5.25361ZM29.129 7.52291C27.8936 8.57385 27.594 9.57549 28.5227 9.5518C29.0819 9.53739 30.9693 7.71081 30.9693 7.18358C30.9693 6.30391 30.4494 6.39994 29.129 7.52291ZM39.7424 7.36893C39.4079 7.91025 40.5356 8.60073 41.7543 8.60073C43.0383 8.60073 43.1759 7.90833 41.9982 7.37181C40.9591 6.89836 40.034 6.89708 39.7424 7.36893ZM9.17042 9.17534C8.57981 9.70289 8.21648 10.3041 8.28498 10.6399C8.39126 11.161 8.49626 11.145 9.52159 10.4542C10.5786 9.74195 11.2425 8.28062 10.5091 8.28062C10.3238 8.28062 9.72134 8.68332 9.17042 9.17534ZM16.6752 9.41351C16.4297 10.0528 16.7559 10.4155 17.7578 10.6178C18.2457 10.7161 18.9096 10.8992 19.2332 11.0243C19.7131 11.21 19.8018 11.1168 19.7134 10.5201C19.578 9.60398 16.9668 8.65291 16.6752 9.41351ZM35.2995 9.86711C34.9995 10.3524 36.693 11.3281 37.1104 10.9107C37.6517 10.3694 37.1546 9.56108 36.28 9.56108C35.845 9.56108 35.4035 9.69873 35.2995 9.86711ZM22.6025 11.4805C20.6072 11.734 18.0008 12.8541 17.7233 13.5772C17.4556 14.2741 16.9505 14.149 15.549 13.0391C14.6037 12.2904 14.1895 12.1278 13.9184 12.3989C13.3918 12.9255 16.6112 15.9461 18.8843 17.0582C21.8476 18.508 27.4525 18.7596 30.4891 17.5787C34.1023 16.174 37.3716 13.8743 37.3716 12.7373C37.3716 11.8355 36.943 11.9725 35.2909 13.4025C34.4771 14.1067 33.712 14.682 33.5907 14.681C33.4694 14.6797 33.1342 14.2639 32.8458 13.7568C31.8554 12.016 26.9563 10.9273 22.6025 11.4805ZM40.793 11.6886C40.4886 11.993 40.5155 13.6496 40.8282 13.8426C41.3532 14.1672 41.9009 13.462 41.7988 12.5923C41.6938 11.6975 41.2146 11.267 40.793 11.6886ZM22.0061 12.8823C18.0949 13.8711 17.5827 15.0581 20.5582 16.239C23.5234 17.4154 28.9587 17.1709 31.2094 15.7598C34.1535 13.9143 26.8978 11.6457 22.0061 12.8823ZM47.3867 16.4436C47.3893 17.3239 47.4514 17.6459 47.525 17.1593C47.5983 16.6728 47.5964 15.9525 47.5205 15.5588C47.4447 15.165 47.3845 15.5632 47.3867 16.4436ZM6.00032 15.8033C5.77144 16.0789 5.07326 16.2835 4.36069 16.2835C3.25373 16.2835 3.11928 16.3693 3.11928 17.0745C3.11928 17.5099 3.46149 18.6261 3.87956 19.5554C6.24105 24.8034 11.3462 28.2443 19.2015 29.883C22.3102 30.5315 23.1297 30.5133 21.7353 29.8263C20.6293 29.2811 19.7012 28.0167 18.6545 25.6273C18.3219 24.8683 17.7972 24.1122 17.488 23.9467C16.3884 23.3584 14.4286 23.625 12.5351 24.6209C11.5162 25.1571 10.3997 25.5531 10.0539 25.5012C8.87847 25.3245 8.18478 23.8872 7.90052 21.0398C7.42963 16.3213 7.23916 15.3232 6.80989 15.3232C6.58389 15.3232 6.2196 15.5392 6.00032 15.8033ZM11.6078 16.2745C11.3597 16.676 12.3562 18.2042 12.8661 18.2042C13.5896 18.2042 13.669 17.7989 13.1254 16.8789C12.578 15.9525 11.9593 15.706 11.6078 16.2745ZM38.0371 17.6424C37.1021 18.127 36.8575 18.7013 37.4833 18.9417C38.0266 19.1501 40.0926 18.1859 40.0926 17.724C40.0926 17.2374 38.9085 17.1904 38.0371 17.6424ZM19.9106 20.1486C19.659 20.5561 20.9708 22.0456 21.5816 22.0456C22.2026 22.0456 22.0996 20.9489 21.4206 20.3346C20.7451 19.7231 20.2141 19.6578 19.9106 20.1486ZM28.9446 20.0154C28.5332 20.4271 29.4625 21.0852 30.4482 21.0804C31.6486 21.0743 32.4149 20.6508 32.1118 20.1607C31.8771 19.7808 29.2977 19.6626 28.9446 20.0154ZM41.0933 21.4854C40.8433 21.8817 40.4089 22.9979 40.1284 23.9663C39.5298 26.032 39.3637 26.3095 38.4331 26.7993C37.0028 27.5522 36.0502 27.2542 34.4906 25.5668C33.2232 24.1955 32.8401 23.9663 31.815 23.9663C30.9325 23.9663 30.4126 24.1884 29.8335 24.8133C29.402 25.2791 29.0486 25.8418 29.0486 26.0637C29.0486 26.7769 27.6676 29.0804 26.9634 29.5417C26.5879 29.7879 25.931 30.0549 25.504 30.1352C25.0766 30.2156 25.7354 30.301 26.9679 30.3247C32.1518 30.4249 38.6978 28.2023 42.6484 25.0002C45.2 22.9323 45.3777 22.591 44.4276 21.5798C43.4199 20.5071 41.7409 20.4594 41.0933 21.4854Z" fill="#FF7081"/>
<path fill-rule="evenodd" clip-rule="evenodd" d="M18.4038 0.442919C10.6596 2.13345 4.6616 6.40571 2.45664 11.8019C1.84779 13.2923 1.84779 18.3143 2.45664 19.8048C3.81233 23.1224 6.97091 26.3511 10.8603 28.3951C19.3795 32.8725 31.355 32.8725 39.8743 28.3951C42.8597 26.8262 45.2432 24.7467 46.9386 22.2322C48.4114 20.0481 48.7357 18.888 48.7357 15.8033C48.7357 12.6915 48.4226 11.5925 46.8669 9.24097C44.0527 4.98727 38.7574 1.81653 32.1733 0.443239C29.3418 -0.147693 21.1098 -0.147693 18.4038 0.442919ZM22.3262 1.26049C14.2196 1.87031 7.1044 5.71234 4.28962 10.9997C3.44228 12.5919 3.26494 13.536 3.63371 14.4966C3.89812 15.1855 4.59917 15.1327 5.71253 14.3398C6.22504 13.9748 6.89536 13.7232 7.20267 13.7805C8.0609 13.9406 8.8804 15.9138 8.88072 17.8223C8.88168 20.2603 9.54015 23.9048 10.013 24.0863C10.2345 24.1715 10.9711 23.9419 11.6494 23.5764C13.7295 22.4553 15.914 21.9995 17.1954 22.4188C18.6596 22.8977 18.9234 23.1951 20.1379 25.7375C21.2922 28.1543 22.4443 29.0849 24.2837 29.0868C25.834 29.0884 26.9381 28.1566 27.6142 26.2762C28.5905 23.5616 29.6789 22.6858 32.0759 22.6858C33.4214 22.6858 33.6727 22.8199 35.0713 24.2864C36.5953 25.8841 37.6203 26.2698 38.2606 25.4868C38.4408 25.2669 38.7823 24.2361 39.0202 23.1964C39.6114 20.6095 40.6832 19.4824 42.5418 19.4917C43.4285 19.4962 44.2246 19.7263 44.7343 20.1249C45.1744 20.4693 45.6501 20.7542 45.7913 20.7581C45.9324 20.7619 45.9542 19.5765 45.8393 18.1242C45.6418 15.625 45.6757 15.4173 46.4744 14.2514C46.9997 13.4847 47.2459 12.7914 47.1265 12.4149C46.2471 9.64399 42.9666 6.22324 39.4293 4.38834C34.3667 1.76244 28.9129 0.764956 22.3262 1.26049ZM30.9693 2.83226C30.9693 3.15846 33.2552 4.43924 33.8375 4.43924C34.5139 4.43924 34.1436 3.24937 33.3551 2.8902C32.3608 2.43692 30.9693 2.40331 30.9693 2.83226ZM23.1799 4.01252C23.0625 4.12969 22.9664 4.70589 22.9664 5.29298C22.9664 6.12656 23.099 6.35993 23.5724 6.35993C24.3055 6.35993 24.6352 5.62334 24.372 4.57401C24.1851 3.82878 23.6265 3.56564 23.1799 4.01252ZM15.2837 5.25361C15.2837 5.52539 15.6271 6.11792 16.0468 6.57056C16.6256 7.19479 16.9409 7.32027 17.3516 7.09043C17.8411 6.81673 17.811 6.68901 17.0401 5.77348C16.13 4.69149 15.2837 4.44116 15.2837 5.25361ZM29.129 7.52291C27.8936 8.57385 27.594 9.57549 28.5227 9.5518C29.0819 9.53739 30.9693 7.71081 30.9693 7.18358C30.9693 6.30391 30.4494 6.39994 29.129 7.52291ZM39.7424 7.36893C39.4079 7.91025 40.5356 8.60073 41.7543 8.60073C43.0383 8.60073 43.1759 7.90833 41.9982 7.37181C40.9591 6.89836 40.034 6.89708 39.7424 7.36893ZM9.17042 9.17534C8.57981 9.70289 8.21648 10.3041 8.28498 10.6399C8.39126 11.161 8.49626 11.145 9.52159 10.4542C10.5786 9.74195 11.2425 8.28062 10.5091 8.28062C10.3238 8.28062 9.72134 8.68332 9.17042 9.17534ZM16.6752 9.41351C16.4297 10.0528 16.7559 10.4155 17.7578 10.6178C18.2457 10.7161 18.9096 10.8992 19.2332 11.0243C19.7131 11.21 19.8018 11.1168 19.7134 10.5201C19.578 9.60398 16.9668 8.65291 16.6752 9.41351ZM35.2995 9.86711C34.9995 10.3524 36.693 11.3281 37.1104 10.9107C37.6517 10.3694 37.1546 9.56108 36.28 9.56108C35.845 9.56108 35.4035 9.69873 35.2995 9.86711ZM22.6025 11.4805C20.6072 11.734 18.0008 12.8541 17.7233 13.5772C17.4556 14.2741 16.9505 14.149 15.549 13.0391C14.6037 12.2904 14.1895 12.1278 13.9184 12.3989C13.3918 12.9255 16.6112 15.9461 18.8843 17.0582C21.8476 18.508 27.4525 18.7596 30.4891 17.5787C34.1023 16.174 37.3716 13.8743 37.3716 12.7373C37.3716 11.8355 36.943 11.9725 35.2909 13.4025C34.4771 14.1067 33.712 14.682 33.5907 14.681C33.4694 14.6797 33.1342 14.2639 32.8458 13.7568C31.8554 12.016 26.9563 10.9273 22.6025 11.4805ZM40.793 11.6886C40.4886 11.993 40.5155 13.6496 40.8282 13.8426C41.3532 14.1672 41.9009 13.462 41.7988 12.5923C41.6938 11.6975 41.2146 11.267 40.793 11.6886ZM22.0061 12.8823C18.0949 13.8711 17.5827 15.0581 20.5582 16.239C23.5234 17.4154 28.9587 17.1709 31.2094 15.7598C34.1535 13.9143 26.8978 11.6457 22.0061 12.8823ZM47.3867 16.4436C47.3893 17.3239 47.4514 17.6459 47.525 17.1593C47.5983 16.6728 47.5964 15.9525 47.5205 15.5588C47.4447 15.165 47.3845 15.5632 47.3867 16.4436ZM6.00032 15.8033C5.77144 16.0789 5.07326 16.2835 4.36069 16.2835C3.25373 16.2835 3.11928 16.3693 3.11928 17.0745C3.11928 17.5099 3.46149 18.6261 3.87956 19.5554C6.24105 24.8034 11.3462 28.2443 19.2015 29.883C22.3102 30.5315 23.1297 30.5133 21.7353 29.8263C20.6293 29.2811 19.7012 28.0167 18.6545 25.6273C18.3219 24.8683 17.7972 24.1122 17.488 23.9467C16.3884 23.3584 14.4286 23.625 12.5351 24.6209C11.5162 25.1571 10.3997 25.5531 10.0539 25.5012C8.87847 25.3245 8.18478 23.8872 7.90052 21.0398C7.42963 16.3213 7.23916 15.3232 6.80989 15.3232C6.58389 15.3232 6.2196 15.5392 6.00032 15.8033ZM11.6078 16.2745C11.3597 16.676 12.3562 18.2042 12.8661 18.2042C13.5896 18.2042 13.669 17.7989 13.1254 16.8789C12.578 15.9525 11.9593 15.706 11.6078 16.2745ZM38.0371 17.6424C37.1021 18.127 36.8575 18.7013 37.4833 18.9417C38.0266 19.1501 40.0926 18.1859 40.0926 17.724C40.0926 17.2374 38.9085 17.1904 38.0371 17.6424ZM19.9106 20.1486C19.659 20.5561 20.9708 22.0456 21.5816 22.0456C22.2026 22.0456 22.0996 20.9489 21.4206 20.3346C20.7451 19.7231 20.2141 19.6578 19.9106 20.1486ZM28.9446 20.0154C28.5332 20.4271 29.4625 21.0852 30.4482 21.0804C31.6486 21.0743 32.4149 20.6508 32.1118 20.1607C31.8771 19.7808 29.2977 19.6626 28.9446 20.0154ZM41.0933 21.4854C40.8433 21.8817 40.4089 22.9979 40.1284 23.9663C39.5298 26.032 39.3637 26.3095 38.4331 26.7993C37.0028 27.5522 36.0502 27.2542 34.4906 25.5668C33.2232 24.1955 32.8401 23.9663 31.815 23.9663C30.9325 23.9663 30.4126 24.1884 29.8335 24.8133C29.402 25.2791 29.0486 25.8418 29.0486 26.0637C29.0486 26.7769 27.6676 29.0804 26.9634 29.5417C26.5879 29.7879 25.931 30.0549 25.504 30.1352C25.0766 30.2156 25.7354 30.301 26.9679 30.3247C32.1518 30.4249 38.6978 28.2023 42.6484 25.0002C45.2 22.9323 45.3777 22.591 44.4276 21.5798C43.4199 20.5071 41.7409 20.4594 41.0933 21.4854Z" stroke="black" stroke-width="0.64023" mask="url(#path-1-inside-1_14_79)"/>
</g>
<defs>
<filter id="filter0_d_14_79" x="0.719539" y="0" width="49.2963" height="34.3141" filterUnits="userSpaceOnUse" color-interpolation-filters="sRGB">
<feFlood flood-opacity="0" result="BackgroundImageFix"/>
<feColorMatrix in="SourceAlpha" type="matrix" values="0 0 0 0 0 0 0 0 0 0 0 0 0 0 0 0 0 0 127 0" result="hardAlpha"/>
<feOffset dy="1.28046"/>
<feGaussianBlur stdDeviation="0.64023"/>
<feComposite in2="hardAlpha" operator="out"/>
<feColorMatrix type="matrix" values="0 0 0 0 1 0 0 0 0 1 0 0 0 0 1 0 0 0 0.25 0"/>
<feBlend mode="normal" in2="BackgroundImageFix" result="effect1_dropShadow_14_79"/>
<feBlend mode="normal" in="SourceGraphic" in2="effect1_dropShadow_14_79" result="shape"/>
</filter>
</defs>
</svg>
